<?xml version="1.0" encoding="UTF-8"?><svg id="Layer_1" xmlns="http://www.w3.org/2000/svg" viewBox="0 0 16 16"><defs><style>.cls-1{fill:#22372d;}</style></defs><path class="cls-1" d="m15.41,9.94c-.31.16-1.3.22-1.3.22,0,0,.76-.32.8-.88.04-.56-.16-.22-.64.35-.47.57-.92.64-.92.64,0,0,.28-2.92-.08-4.82-.36-1.9-1.18-3.39-2.34-4.63-1.15-1.24-2.37-.77-2.63.06-.26.83-.35,2.54-.68,3.55-.33,1-1.16,1.91-.81,2.73.35.82,2.29,2.22,3.76,2.9-.85-.16-2.07-.79-2.88-1.47-.81-.68-1.64-.51-2.26.21-.82-.27-1.16.14-1.16,1.09-.43-.05-.99.28-.7,1.23-.46-.01-.85.45-.82,1.18.03.72-.28,1.21-1.48,1.49-1.2.28-1.45,1.11-.62,1.25.83.14,1.2-1.16,1.95-.91.74.25,1.15,1.75,1.67,1.81s.93-.48,1.29-.54c.55-.08,1.46.31,2.08-.32.62-.63,1.46-1.23,2.5-1.48,1.04-.25,2.37-1.36,3-2.26.63-.9,1.42-.82,2.2-.89.78-.07.38-.66.07-.51ZM9.42.52c.33-.12.62.42.59.76-.03.34-.37.22-.65,0-.28-.22-.55-.54.06-.76Zm-.64,1.12c.36.03.36.41.14.36-.22-.05-.39-.38-.14-.36Zm-.16.68c.4.05.37.66.08.53-.29-.13-.37-.56-.08-.53Zm-.22.9c.36.17.43.74.12.63-.31-.11-.33-.73-.12-.63Zm-1.21,3.4c.3.11.18.36.02.28-.16-.08-.17-.33-.02-.28Zm.19.94c-.15-.05-.27-.36,0-.28.16.04.15.34,0,.28Zm.05-1.32c-.29-.09-.3-.61.03-.4.26.16.26.49-.03.4Zm.31-.67c-.21-.15-.24-.6.1-.4.25.14.11.55-.1.4Zm.39-.84c-.28-.08-.2-.62.07-.51.38.15.21.59-.07.51Zm.26,2.22c0-1.12,1.19-2.63,1.3-3.43.1-.81.37-1.55,1.22-.82.84.73,1.54,2.42,1.36,3.77-.19,1.35-.99,2.62-1.17,2.72,0,0-2.7-1.13-2.7-2.24Zm-1.72,1.67c.61.22.56.6.25.87-.31.26-.38.07-.61-.21-.23-.28-.36-.12-.43-.23-.07-.11.48-.55.79-.43Zm-1.67.64c.19.02.63.7.57.89-.07.19-.66-.08-.86-.39-.2-.3.09-.52.3-.51Zm-1.13,1.41c.12-.12,0-.36.24-.37.24,0,.72.71.63.86-.18.32-1-.37-.88-.49Zm-.4.9c.15-.1.1.11.41.09.3-.02.5-.03.53.17.05.39-.23.43-.53.41-.29-.03-.43.18-.55.09-.11-.08-.02-.67.13-.76Zm.18,2.56c-.32-.16-.6-.54-.56-.83.04-.29.17-.47.43-.44.63.06,1.16.26,1.12.55-.04.29-.66.88-.99.72Zm1.61.78c-.05.19-.58.43-.77.33-.19-.1-.32-.26-.19-.44.13-.18.02-.44.19-.46.47-.06.82.38.77.57Zm4.27-2.16c-1.06.07-1.67.39-2.31,1.13-.64.73-1.3.37-1.62-.33-.32-.7-1.28-.87-.99-1.02.36-.19.44-.51.34-.72-.1-.22.46-.5.42-.71-.04-.22-.26-.38-.03-.36.23.02.96-.1.84-.65.53.33,1.19-.36,1.63-.3.43.06,3.1,1.35,3.45,1.82.35.47-.68,1.09-1.74,1.16Zm2.92-2.44c-.32.07-.47-.23-.4-.44.07-.21.53-.55.76-.38.17.12-.05.75-.36.82Zm.46-1.05c-.19-.01-.55-.45-.44-.57.1-.12.34-.47.44-.47.14,0,.19,1.05,0,1.04Z"/><path class="cls-1" d="m12.58,2c.02.41.26.87.44.49s.15-.77.46-.49c.31.29.54.27,1,.16.46-.11.59,4.1-.76,5.84l-.06,1.73s1.3-1.21,1.65-3.7c.36-2.48-.08-5.74-1.28-5.97-1.2-.23-2.15,1.4-1.92,1.57.23.17.45-.04.46.37Zm1.15-1.35c.46,0,.53.66.36.96s-.45,0-.59-.35c-.13-.35-.15-.62.23-.61Z"/><path class="cls-1" d="m13.51,8.34.19.04"/></svg>