<?xml version="1.0" encoding="UTF-8"?><svg id="Layer_1" xmlns="http://www.w3.org/2000/svg" viewBox="0 0 16 16"><defs><style>.cls-1{fill:#22372d;}</style></defs><path class="cls-1" d="m10.11,7.81c-.1.05-.42.07-.42.07,0,0,.25-.1.26-.28.01-.18-.05-.07-.21.11-.15.18-.29.21-.29.21,0,0,.09-.94-.03-1.55-.12-.61-.38-1.09-.75-1.49-.37-.4-.76-.25-.85.02-.08.27-.11.82-.22,1.14-.11.32-.37.62-.26.88.11.26.74.72,1.21.93-.28-.05-.67-.25-.93-.47-.26-.22-.53-.16-.73.07-.27-.09-.37.05-.37.35-.14-.02-.32.09-.23.4-.15,0-.28.15-.27.38,0,.23-.09.39-.48.48-.39.09-.47.36-.2.4.27.05.39-.37.63-.29.24.08.37.56.54.58s.3-.16.41-.17c.18-.03.47.1.67-.1.2-.2.47-.4.81-.48.33-.08.76-.44.96-.73.2-.29.46-.26.71-.29.25-.02.12-.21.02-.16Zm-1.93-3.03c.11-.04.2.14.19.24,0,.11-.12.07-.21,0-.09-.07-.18-.17.02-.24Zm-.21.36c.11,0,.11.13.05.12-.07-.01-.12-.12-.05-.12Zm-.05.22c.13.02.12.21.02.17-.09-.04-.12-.18-.02-.17Zm-.07.29c.12.05.14.24.04.2-.1-.03-.11-.23-.04-.2Zm-.39,1.09c.1.03.06.11,0,.09-.05-.02-.05-.11,0-.09Zm.06.3s-.09-.12,0-.09c.05.01.05.11,0,.09Zm.01-.42c-.09-.03-.1-.2,0-.13.08.05.08.16,0,.13Zm.1-.22c-.07-.05-.08-.19.03-.13.08.05.03.18-.03.13Zm.12-.27c-.09-.03-.06-.2.02-.16.12.05.07.19-.02.16Zm.08.71c0-.36.38-.85.42-1.1.03-.26.12-.5.39-.26.27.24.5.78.44,1.21-.06.44-.32.84-.38.88,0,0-.87-.36-.87-.72Zm-.55.54c.2.07.18.19.08.28-.1.08-.12.02-.2-.07-.07-.09-.12-.04-.14-.07-.02-.03.15-.18.26-.14Zm-.54.21c.06,0,.2.23.18.29-.02.06-.21-.03-.28-.12-.06-.1.03-.17.1-.16Zm-.36.45s0-.12.08-.12c.08,0,.23.23.2.28-.06.1-.32-.12-.28-.16Zm-.13.29s.03.03.13.03c.1,0,.16,0,.17.05.02.13-.07.14-.17.13-.09,0-.14.06-.18.03-.04-.03,0-.21.04-.25Zm.06.82c-.1-.05-.19-.17-.18-.27.01-.09.06-.15.14-.14.2.02.37.08.36.18-.01.09-.21.28-.32.23Zm.52.25c-.01.06-.19.14-.25.11-.06-.03-.1-.08-.06-.14.04-.06,0-.14.06-.15.15-.02.26.12.25.18Zm1.38-.69c-.34.02-.54.13-.74.36-.21.24-.42.12-.52-.11-.1-.23-.41-.28-.32-.33.12-.06.14-.16.11-.23-.03-.07.15-.16.14-.23-.01-.07-.08-.12,0-.12.07,0,.31-.03.27-.21.17.11.38-.12.52-.1.14.02,1,.44,1.11.59.11.15-.22.35-.56.37Zm.94-.79c-.1.02-.15-.07-.13-.14.02-.07.17-.18.25-.12.06.04-.01.24-.12.26Zm.15-.34c-.06,0-.18-.14-.14-.18.03-.04.11-.15.14-.15.05,0,.06.34,0,.33Z"/><path class="cls-1" d="m9.2,5.26c0,.13.08.28.14.16s.05-.25.15-.16c.1.09.17.09.32.05.15-.03.19,1.32-.24,1.88l-.02.56s.42-.39.53-1.19c.11-.8-.02-1.85-.41-1.92-.39-.07-.69.45-.62.5.07.06.14-.01.15.12Zm.37-.43c.15,0,.17.21.12.31s-.15,0-.19-.11c-.04-.11-.05-.2.07-.2Z"/><path class="cls-1" d="m6.84,12.95s-.13.02-.2,0c-.16-.04-.34-.22-.43-.38-.05-.09-.06-.15-.06-.17.07-.03.35-.02.57.09.06.03.14.08.16.15,0,.01,0,.03,0,.04,0,.14,0,.23-.05.26h0Z"/><path class="cls-1" d="m11.06,8.59s.06,0,.09.01c.23.04.49.11.74.2-.27.29-.47.71-.57.95-.23.04-.44.04-.63.03.27-.45.35-.93.37-1.19Z"/><path class="cls-1" d="m11.39,10.23c0,.12-.06.29-.14.43-.03-.12-.04-.26,0-.38.04-.15.1-.19.11-.2,0,0,.04.05.03.15h0Z"/><path class="cls-1" d="m11.11,10.84c-.1.11-.22.18-.33.18-.07,0-.13-.02-.17-.06-.1-.1-.1-.29-.1-.29,0-.05-.04-.1-.09-.1-.05,0-.1.04-.1.09-.03.41-.15.75-.22.75-.12,0-.25-.25-.31-.43.01,0,.02-.02.03-.03.1-.18.16-.34.2-.48.23-.14.4-.32.54-.5.1,0,.2.02.3.02s.22,0,.33-.02c-.05.05-.11.14-.14.27-.05.2-.03.43.05.62h0Z"/><path class="cls-1" d="m9.73,10.69c-.08-.36-.11-.67.11-.83.05.11.1.37-.11.83Z"/><path class="cls-1" d="m10.05,9.86c.09.03.19.05.29.07-.08.09-.16.18-.26.26.01-.14,0-.24-.03-.32h0Z"/><path class="cls-1" d="m10.86,8.57c-.02.25-.1.74-.39,1.18-.72-.11-1.2-.47-1.39-.64.31-.43,1.14-.58,1.78-.54Z"/><path class="cls-1" d="m8.01,9.73s.11-.07.17-.11c.28.02.5.12.66.27-.11.11-.3.41-.09,1.04-.17.13-.35.15-.37.15-.09-.1-.19-.19-.28-.26-.05-.04-.11-.08-.16-.12-.13-.09-.25-.18-.36-.28.15-.3.31-.59.44-.69h0Z"/><path class="cls-1" d="m7.96,12.46s0,0,0,0c0,0,.02.1-.1.35-.12.25-.37.23-.38.23-.02,0-.03,0-.05,0-.09.04-.19.07-.23.06,0-.02,0-.04-.02-.06-.03-.09-.06-.22-.09-.38,0-.02,0-.04-.01-.06-.02-.1-.04-.22-.05-.36-.02-.24.07-.38.14-.45.22-.03.4-.08.54-.14-.05.17-.05.35.02.54.05.13.14.22.26.27h-.02Z"/><path class="cls-1" d="m7.9,12.11c-.09-.24-.04-.49.14-.65.04-.03.04-.09.01-.13-.03-.04-.09-.05-.13-.02,0,0-.24.18-.64.26-.03-.11-.06-.29-.03-.37.03-.09.13-.33.25-.6.11.09.22.18.34.26.05.04.11.07.16.11.22.16.49.46.53.76.02.15-.02.29-.11.41-.07.09-.16.14-.26.14-.11,0-.2-.06-.25-.17h0Z"/><path class="cls-1" d="m9.1,12.97c-.28.02-.73.03-.89,0-.14-.04-.13-.18-.12-.22.04-.11.06-.2.06-.25h0c.15,0,.3-.09.4-.22.13-.16.18-.35.15-.56-.02-.16-.09-.32-.19-.46.08-.02.19-.06.3-.13.03.1.06.19.09.26.09.3.15.45.26.51,0,.19-.03.59-.06.81-.02.1-.01.19,0,.27Z"/><path class="cls-1" d="m8.96,10.05c.09.17.11.37.03.56-.02.06-.05.11-.09.16-.12-.43-.01-.64.06-.72h0Z"/><path class="cls-1" d="m9.22,11.7s-.06-.14-.14-.37c-.03-.09-.07-.2-.11-.34.08-.08.15-.18.2-.31.1-.26.07-.56-.08-.79-.13-.2-.35-.34-.62-.41.21-.1.41-.18.49-.22.13.12.38.31.74.47-.32.27-.21.75-.14,1.05.02.07.03.14.04.2.03.19-.06.5-.2.66-.03.04-.06.06-.08.07-.02-.01-.04-.02-.06-.02-.01,0-.03,0-.04,0h0Z"/><path class="cls-1" d="m9.54,13.09c-.07.01-.14-.01-.19-.06-.06-.07-.09-.17-.07-.3.04-.23.06-.63.07-.83.07-.02.13-.07.19-.14.08-.1.16-.25.2-.41.08.12.19.24.32.26.02.2.08.81.24,1.22-.31.13-.64.25-.77.27h0Z"/><path class="cls-1" d="m10.76,12.62c-.08.04-.18.08-.28.12-.16-.42-.22-1.1-.23-1.21.08-.08.14-.22.19-.43,0,0,0-.02,0-.03,0,0,.01.01.02.02.08.08.18.12.31.12.16,0,.31-.08.44-.21.03.04.07.07.11.1-.04.2-.14.75.02,1.1-.24.2-.47.37-.58.41Z"/><path class="cls-1" d="m11.34,10.87s0,0,0,0c.15-.21.24-.46.24-.63,0-.17-.05-.26-.12-.31.08-.2.32-.75.63-1.05.31.12.6.25.8.34-.2.15-.38.42-.57.72-.05.08-.1.16-.15.25-.19.32-.47.79-.65.79-.08,0-.15-.06-.19-.11h0Z"/><path class="cls-1" d="m13.23,9.75c-.16.25-.9,1.37-1.15,1.72-.11.16-.35.39-.59.6-.09-.26-.04-.67.01-.9,0,0,.02,0,.02,0,.29,0,.56-.45.81-.89.05-.09.1-.17.15-.25.2-.33.4-.63.61-.72,0,0,.02,0,.03.01.09.05.15.12.17.19.02.07,0,.15-.06.23h0Z"/><path class="cls-1" d="m15.99,12.89c-.25-.63-1.22-1.21-1.62-1.43.27-.2.5-.69.54-1.22.03-.34.17-.59.34-.9.1-.18.22-.39.32-.63.15-.36.13-.74-.06-1.03-.06-.08-.12-.16-.2-.22,0,0,0,0,0,0-.15-.11-.33-.17-.53-.17-.64,0-1.17.55-1.27,1.06-.05.28.02.59.09.88.05.21.1.41.09.57,0,.26-.17.42-.39.64-.08.08-.18.17-.27.28-.34.39-.82,1.27-.87,1.36-.31.41-.82.71-.82.71-.05.03-.06.09-.04.13.02.03.05.05.08.05.02,0,.03,0,.05-.01.02-.01.38-.22.69-.54.09.11.24.29.43.36-.05.06-.13.14-.23.24-.04.04-.04.1,0,.14.04.04.1.04.14,0,.12-.11.2-.2.26-.27.08-.09.11-.12.15-.14.04-.01.12-.01.26,0,.28.02.45.31.62.59.18.3.36.6.68.6.57,0,1.29-.3,1.55-.97,0-.02,0-.05,0-.07h0Zm-1.55.85c-.21,0-.36-.25-.52-.51-.18-.31-.39-.65-.77-.68-.24-.02-.33-.02-.43.05-.19,0-.37-.21-.46-.34.02-.03.04-.05.06-.08,0,0,0,0,0-.01,0,0,.51-.95.85-1.33.09-.1.18-.19.26-.27.24-.23.44-.44.45-.78,0-.19-.05-.39-.1-.62-.07-.28-.14-.56-.09-.8.08-.43.54-.9,1.08-.9.11,0,.21.02.3.07-.06.06-.13.15-.15.27h0c-.03.23-.06.37-.19.43-.05.02-.07.08-.05.13.02.03.05.06.09.06.01,0,.03,0,.04,0,.23-.11.27-.35.3-.57h0c.01-.11.08-.17.13-.2.04.04.08.08.11.13.15.23.17.55.04.85-.1.24-.21.43-.31.61-.18.32-.34.6-.37.98-.04.57-.32,1.07-.55,1.13-.11.03-.21-.01-.32-.06-.14-.06-.29-.12-.46-.04-.05.02-.07.08-.05.13.02.05.08.07.13.05.09-.04.18,0,.31.04.11.04.22.09.36.08.19.1,1.38.73,1.67,1.38-.24.56-.86.81-1.36.81h0Z"/><path class="cls-1" d="m14.56,8.08s.05,0,.07-.03c.11-.11.12-.27.12-.29,0-.05-.04-.1-.09-.1-.05,0-.1.04-.1.09,0,.03-.02.11-.06.16-.04.04-.04.1,0,.14.02.02.04.03.07.03h0Z"/><path class="cls-1" d="m9.06,3.64c-1.74,0-3.25,1.02-3.95,2.5h.18c.69-1.38,2.12-2.34,3.77-2.34,1.76,0,3.26,1.08,3.9,2.62h.18c-.64-1.63-2.23-2.78-4.08-2.78h0Z"/><path class="cls-1" d="m6.52,11.62l.05-.17c-.8-.59-1.38-1.46-1.61-2.46h-.17c.24,1.08.87,2.01,1.73,2.63Z"/><path class="cls-1" d="m9.06,1.71c-2.78,0-5.14,1.82-5.96,4.34h.45c.8-2.28,2.96-3.91,5.51-3.91,2.77,0,5.08,1.93,5.69,4.52h.43c-.61-2.83-3.12-4.95-6.12-4.95Z"/><path class="cls-1" d="m9.06,13.86c-2.9,0-5.31-2.12-5.76-4.91h-.43c.46,3.02,3.06,5.33,6.19,5.33.93,0,1.81-.2,2.6-.57l-.26-.35c-.72.32-1.51.49-2.35.49h0Z"/><path class="cls-1" d="m4.29,5.24s.05-.09.08-.15c.05-.08.1-.12.15-.13.04-.02.09,0,.14.02.06.04.08.11.06.19h0c.05-.05.14-.08.23-.02.05.03.08.08.08.13,0,.07-.02.14-.08.24-.04.05-.07.09-.09.11l-.58-.39h0Zm.29.09l.05-.07c.05-.08.04-.16-.01-.19-.07-.05-.13-.01-.18.06-.02.03-.03.06-.04.07l.19.13Zm.28.19s.03-.03.05-.06c.05-.08.07-.17-.01-.23-.08-.05-.16,0-.22.07l-.04.06.22.15h0Z"/><path class="cls-1" d="m5.28,4.54l-.18.21.19.17.2-.23.06.05-.26.3-.53-.47.25-.29.06.05-.19.22.17.15.18-.21.06.05h0Z"/><path class="cls-1" d="m5.61,3.72l.07-.06.21.27h0s0-.07,0-.1v-.34s.1-.07.1-.07l-.02.4.47.16-.09.07-.4-.14v.1s.16.22.16.22l-.07.06-.43-.57h0Z"/><path class="cls-1" d="m6.34,3.21l.36.61-.08.05-.36-.61.08-.05Z"/><path class="cls-1" d="m6.98,3.66l-.28-.65.09-.04.35.24c.08.06.15.11.21.16h0c-.05-.09-.08-.16-.13-.27l-.12-.27.08-.03.28.65-.08.04-.35-.24c-.08-.05-.15-.11-.22-.16h0c.04.08.08.16.12.27l.12.28-.08.03h0Z"/><path class="cls-1" d="m7.6,2.67c.05-.02.12-.04.19-.06.13-.03.23-.02.3.02.07.04.13.11.15.23.03.11.01.21-.04.29-.05.08-.15.14-.28.17-.06.01-.12.02-.16.03l-.16-.68h0Zm.23.59s.06,0,.09-.02c.19-.04.27-.18.22-.36-.04-.16-.15-.25-.34-.2-.05.01-.08.02-.1.03l.13.55h0Z"/><path class="cls-1" d="m8.99,2.45h.38s0,.08,0,.08h-.29s0,.23,0,.23h.27s0,.08,0,.08h-.27s0,.32,0,.32h-.09s.01-.71.01-.71h0Z"/><path class="cls-1" d="m10.3,2.95c-.04.24-.21.34-.39.31-.18-.03-.29-.2-.25-.41.04-.22.2-.34.39-.31.19.04.29.2.25.41Zm-.54-.09c-.03.15.03.3.17.32.14.03.25-.09.28-.25.03-.14-.02-.3-.17-.32-.15-.03-.25.1-.28.25Z"/><path class="cls-1" d="m10.73,2.73s.11.03.17.05c.09.03.14.07.17.13.02.04.02.09,0,.15-.03.09-.11.13-.19.12h0s.06.1.05.17c-.01.1-.02.17-.02.2l-.09-.03s0-.09.01-.18c.01-.1,0-.15-.09-.18l-.08-.03-.11.29-.09-.03.24-.66h0Zm-.03.33l.09.03c.09.03.17,0,.2-.07.03-.09-.02-.15-.11-.18-.04-.02-.07-.02-.09-.02l-.09.24Z"/><path class="cls-1" d="m12.19,3.88c-.14.2-.33.23-.48.12-.15-.11-.18-.3-.06-.48.13-.19.32-.23.48-.12.16.11.18.3.06.48Zm-.46-.3c-.08.13-.09.28.03.37.12.08.26.02.35-.12.08-.12.1-.28-.03-.37-.13-.09-.27-.01-.35.12Z"/><path class="cls-1" d="m12.67,3.83l.07.06-.43.47.22.2-.05.06-.29-.27.48-.52h0Z"/><path class="cls-1" d="m13.2,4.35l.06.07-.48.41.2.23-.06.05-.26-.3.54-.46h0Z"/><path class="cls-1" d="m13.71,4.99l-.58.41-.05-.07.58-.41.05.07Z"/><path class="cls-1" d="m13.78,5.82l-.14-.24-.22.13.15.27-.07.04-.2-.35.61-.35.19.33-.07.04-.15-.25-.19.11.14.24-.07.04h0Z"/><path class="cls-1" d="m.12,5.96s.07-.03.07-.07-.03-.07-.07-.07-.07.03-.07.07.03.07.07.07Z"/><path class="cls-1" d="m0,6.25s.06-.03.06-.06-.03-.06-.06-.06-.06.03-.06.06.03.06.06.06Z"/><path class="cls-1" d="m.55,6.02c.06,0,.11-.05.11-.11s-.05-.11-.11-.11-.11.05-.11.11.05.11.11.11Z"/><path class="cls-1" d="m.54,5.64s.06-.03.06-.06-.03-.06-.06-.06-.06.03-.06.06.03.06.06.06Z"/><path class="cls-1" d="m.76,6.2s.07-.03.07-.07-.03-.07-.07-.07-.07.03-.07.07.03.07.07.07Z"/><path class="cls-1" d="m1.08,6.06c.08,0,.15-.07.15-.15s-.07-.15-.15-.15-.15.07-.15.15.07.15.15.15Z"/><path class="cls-1" d="m1.18,6.52c.06,0,.11-.05.11-.11s-.05-.11-.11-.11-.11.05-.11.11.05.11.11.11Z"/><path class="cls-1" d="m1.33,6.2s.05-.02.05-.05-.02-.05-.05-.05-.05.02-.05.05.02.05.05.05Z"/><path class="cls-1" d="m1.56,6.58s.08-.03.08-.08-.03-.08-.08-.08-.08.03-.08.08.03.08.08.08Z"/><path class="cls-1" d="m1.62,6.25c.05,0,.1-.04.1-.1s-.04-.1-.1-.1-.1.04-.1.1.04.1.1.1Z"/><path class="cls-1" d="m1.66,6.86s.06-.03.06-.06-.03-.06-.06-.06-.06.03-.06.06.03.06.06.06Z"/><path class="cls-1" d="m1.83,7.14c.06,0,.11-.05.11-.11s-.05-.11-.11-.11-.11.05-.11.11.05.11.11.11Z"/><path class="cls-1" d="m1.97,6.7c.08,0,.15-.07.15-.15s-.07-.15-.15-.15-.15.07-.15.15.07.15.15.15Z"/><path class="cls-1" d="m2.06,6.28s.07-.03.07-.07-.03-.07-.07-.07-.07.03-.07.07.03.07.07.07Z"/><path class="cls-1" d="m2.36,6.78c.06,0,.1-.05.1-.11s-.05-.11-.1-.11-.1.05-.1.11.05.11.1.11Z"/><path class="cls-1" d="m2.21,7.27c.09,0,.17-.08.17-.17s-.08-.17-.17-.17-.17.08-.17.17.08.17.17.17Z"/><path class="cls-1" d="m1.99,7.4s.05-.02.05-.05-.02-.05-.05-.05-.05.02-.05.05.02.05.05.05Z"/><path class="cls-1" d="m2.19,7.71c.07,0,.12-.05.12-.12s-.05-.12-.12-.12-.12.05-.12.12.05.12.12.12Z"/><path class="cls-1" d="m2.54,7.53s.08-.04.08-.08-.03-.08-.08-.08-.08.04-.08.08.03.08.08.08Z"/><path class="cls-1" d="m2.82,7.33c.08,0,.15-.07.15-.15s-.07-.15-.15-.15-.15.07-.15.15.07.15.15.15Z"/><path class="cls-1" d="m2.63,6.93c.05,0,.09-.04.09-.09s-.04-.09-.09-.09-.09.04-.09.09.04.09.09.09Z"/><path class="cls-1" d="m3.09,7.01c.05,0,.09-.04.09-.09s-.04-.09-.09-.09-.09.04-.09.09.04.09.09.09Z"/><path class="cls-1" d="m3.08,6.73s.07-.03.07-.07-.03-.07-.07-.07-.07.03-.07.07.03.07.07.07Z"/><path class="cls-1" d="m2.78,6.54c.06,0,.11-.05.11-.11s-.05-.11-.11-.11-.11.05-.11.11.05.11.11.11Z"/><path class="cls-1" d="m3.47,6.59s-.03.07-.07.07-.07-.03-.07-.07.03-.07.07-.07.07.03.07.07Z"/><path class="cls-1" d="m3.42,7.23c.08,0,.14-.06.14-.14s-.06-.14-.14-.14-.14.06-.14.14.06.14.14.14Z"/><path class="cls-1" d="m3.46,7.57c.05,0,.1-.04.1-.1s-.04-.1-.1-.1-.1.04-.1.1.04.1.1.1Z"/><path class="cls-1" d="m2.92,7.65c.05,0,.1-.04.1-.1s-.04-.1-.1-.1-.1.04-.1.1.04.1.1.1Z"/><path class="cls-1" d="m2.55,8.03c.08,0,.15-.07.15-.15s-.07-.15-.15-.15-.15.07-.15.15.07.15.15.15Z"/><path class="cls-1" d="m2.71,8.3s.07-.03.07-.07-.03-.07-.07-.07-.07.03-.07.07.03.07.07.07Z"/><path class="cls-1" d="m2.97,7.95s.05-.02.05-.05-.02-.05-.05-.05-.05.02-.05.05.02.05.05.05Z"/><path class="cls-1" d="m3.06,8.39s.07-.03.07-.07-.03-.07-.07-.07-.07.03-.07.07.03.07.07.07Z"/><path class="cls-1" d="m3.29,7.96c.08,0,.14-.06.14-.14s-.06-.14-.14-.14-.14.06-.14.14.06.14.14.14Z"/><path class="cls-1" d="m3.45,8.38c.06,0,.1-.05.1-.1s-.05-.1-.1-.1-.1.05-.1.1.05.1.1.1Z"/><path class="cls-1" d="m3.76,8.31s.08-.03.08-.08-.03-.08-.08-.08-.08.03-.08.08.03.08.08.08Z"/><path class="cls-1" d="m3.78,8.01c.07,0,.12-.05.12-.12s-.05-.12-.12-.12-.12.05-.12.12.05.12.12.12Z"/><path class="cls-1" d="m3.89,7.68c.08,0,.14-.06.14-.14s-.06-.14-.14-.14-.14.06-.14.14.06.14.14.14Z"/><path class="cls-1" d="m3.82,7.29s.04-.02.04-.04-.02-.04-.04-.04-.04.02-.04.04.02.04.04.04Z"/><path class="cls-1" d="m4.13,7.42c.07,0,.12-.05.12-.12s-.05-.12-.12-.12-.12.05-.12.12.05.12.12.12Z"/><path class="cls-1" d="m3.79,6.98c.05,0,.1-.04.1-.1s-.04-.1-.1-.1-.1.04-.1.1.04.1.1.1Z"/><path class="cls-1" d="m4.09,6.98s.08-.04.08-.08-.04-.08-.08-.08-.08.04-.08.08.04.08.08.08Z"/><path class="cls-1" d="m4.56,7.08c0,.09-.07.16-.15.16s-.15-.07-.15-.16.07-.16.15-.16.15.07.15.16Z"/><path class="cls-1" d="m4.37,6.68c.06,0,.12-.05.12-.12s-.05-.12-.12-.12-.12.05-.12.12.05.12.12.12Z"/><path class="cls-1" d="m4.53,6.87s.08-.03.08-.08-.03-.08-.08-.08-.08.03-.08.08.03.08.08.08Z"/><path class="cls-1" d="m4.96,6.75c.1,0,.17-.08.17-.17s-.08-.17-.17-.17-.17.08-.17.17.08.17.17.17Z"/><path class="cls-1" d="m4.85,7.1c.06,0,.11-.05.11-.11s-.05-.11-.11-.11-.11.05-.11.11.05.11.11.11Z"/><path class="cls-1" d="m5.16,7.16s-.03.07-.07.07-.07-.03-.07-.07.03-.07.07-.07.07.03.07.07Z"/><path class="cls-1" d="m5.41,7.42s.07-.03.07-.07-.03-.07-.07-.07-.07.03-.07.07.03.07.07.07Z"/><path class="cls-1" d="m5.86,7.36s.07-.03.07-.07-.03-.07-.07-.07-.07.03-.07.07.03.07.07.07Z"/><path class="cls-1" d="m6.19,7.21s.07-.03.07-.07-.03-.07-.07-.07-.07.03-.07.07.03.07.07.07Z"/><path class="cls-1" d="m5.86,7.13c.09,0,.16-.07.16-.16s-.07-.16-.16-.16-.16.07-.16.16.07.16.16.16Z"/><path class="cls-1" d="m5.35,7.08c.08,0,.14-.06.14-.14s-.06-.14-.14-.14-.14.06-.14.14.06.14.14.14Z"/><path class="cls-1" d="m5.53,6.66c.06,0,.1-.05.1-.1s-.05-.1-.1-.1-.1.05-.1.1.05.1.1.1Z"/><path class="cls-1" d="m4.97,7.63c.09,0,.17-.08.17-.17s-.08-.17-.17-.17-.17.08-.17.17.08.17.17.17Z"/><path class="cls-1" d="m4.5,7.69c.08,0,.14-.06.14-.14s-.06-.14-.14-.14-.14.06-.14.14.06.14.14.14Z"/><path class="cls-1" d="m4.18,7.73s.05-.02.05-.05-.02-.05-.05-.05-.05.02-.05.05.02.05.05.05Z"/><path class="cls-1" d="m4.27,8.14c.08,0,.15-.07.15-.15s-.07-.15-.15-.15-.15.07-.15.15.07.15.15.15Z"/><path class="cls-1" d="m4.61,8.01s.07-.03.07-.07-.03-.07-.07-.07-.07.03-.07.07.03.07.07.07Z"/><path class="cls-1" d="m4.53,8.29s.07-.03.07-.07-.03-.07-.07-.07-.07.03-.07.07.03.07.07.07Z"/><path class="cls-1" d="m4.16,8.61c.09,0,.16-.07.16-.16s-.07-.16-.16-.16-.16.07-.16.16.07.16.16.16Z"/><path class="cls-1" d="m4.88,8.11c.08,0,.14-.06.14-.14s-.06-.14-.14-.14-.14.06-.14.14.06.14.14.14Z"/><path class="cls-1" d="m4.95,8.57c.08,0,.14-.06.14-.14s-.06-.14-.14-.14-.14.06-.14.14.06.14.14.14Z"/><path class="cls-1" d="m5.33,8.19c.08,0,.14-.06.14-.14s-.06-.14-.14-.14-.14.06-.14.14.06.14.14.14Z"/><path class="cls-1" d="m5.71,7.97s.07-.03.07-.07-.03-.07-.07-.07-.07.03-.07.07.03.07.07.07Z"/><path class="cls-1" d="m5.55,7.77c.08,0,.15-.07.15-.15s-.07-.15-.15-.15-.15.07-.15.15.07.15.15.15Z"/><path class="cls-1" d="m5.98,7.73c.08,0,.15-.07.15-.15s-.07-.15-.15-.15-.15.07-.15.15.07.15.15.15Z"/><path class="cls-1" d="m6.51,7.1c.09,0,.16-.07.16-.16s-.07-.16-.16-.16-.16.07-.16.16.07.16.16.16Z"/><path class="cls-1" d="m6.22,6.76s.09-.04.09-.09-.04-.09-.09-.09-.09.04-.09.09.04.09.09.09Z"/></svg>